<svg xmlns="http://www.w3.org/2000/svg" xmlns:xlink="http://www.w3.org/1999/xlink" preserveAspectRatio="xMidYMid" width="689" height="855" viewBox="0 0 689 855">
  <defs>
    <style>
      .cls-1 {
        fill: #f5c226;
        fill-rule: evenodd;
      }
    </style>
  </defs>
  <path d="M543.000,66.000 C527.002,66.000 510.998,66.000 495.000,66.000 C495.584,55.576 494.397,48.481 488.000,45.000 C478.514,36.440 459.010,42.944 454.000,51.000 C448.563,59.743 450.003,75.989 450.000,90.000 C449.993,124.162 449.145,156.386 490.000,145.000 C494.929,138.468 499.625,128.223 496.000,116.000 C490.334,116.000 484.666,116.000 479.000,116.000 C479.000,106.668 479.000,97.332 479.000,88.000 C500.665,88.000 522.335,88.000 544.000,88.000 C543.333,117.664 542.667,147.336 542.000,177.000 C534.667,177.000 527.333,177.000 520.000,177.000 C518.000,172.667 516.000,168.333 514.000,164.000 C512.667,165.333 511.333,166.667 510.000,168.000 C495.171,174.717 479.976,180.454 459.000,175.000 C454.890,150.107 442.863,135.841 425.000,125.000 C416.668,121.334 408.332,117.666 400.000,114.000 C393.915,103.093 403.492,48.023 406.000,42.000 C426.007,-6.056 544.294,-9.623 543.000,66.000 ZM150.000,177.000 C150.000,122.005 150.000,66.994 150.000,12.000 C188.724,11.059 253.075,4.547 276.000,22.000 C300.693,40.800 286.409,85.600 260.000,91.000 C260.333,91.667 260.667,92.333 261.000,93.000 C276.134,93.828 287.790,104.069 290.000,118.000 C263.359,123.579 249.078,149.110 244.000,177.000 C212.670,177.000 181.330,177.000 150.000,177.000 ZM323.000,12.000 C339.665,12.000 356.335,12.000 373.000,12.000 C373.000,43.330 373.000,74.670 373.000,106.000 C354.849,96.769 342.301,100.416 323.000,105.000 C323.000,74.003 323.000,42.997 323.000,12.000 ZM199.000,45.000 C199.000,55.999 199.000,67.001 199.000,78.000 C215.940,78.483 231.089,78.019 241.000,72.000 C243.536,63.020 243.160,53.874 239.000,47.000 C228.719,44.202 212.351,44.878 199.000,45.000 ZM199.000,108.000 C199.000,120.332 199.000,132.668 199.000,145.000 C217.401,145.531 231.880,144.945 242.000,138.000 C243.996,131.767 245.620,125.007 244.000,117.000 C236.214,106.066 218.071,107.465 199.000,108.000 ZM343.000,111.000 C359.445,110.748 360.076,117.168 369.000,121.000 C375.999,121.667 383.001,122.333 390.000,123.000 C430.676,135.020 457.065,159.948 445.000,216.000 C443.667,216.000 442.333,216.000 441.000,216.000 C440.667,215.000 440.333,214.000 440.000,213.000 C456.230,157.565 414.618,126.614 369.000,124.000 C369.333,124.667 369.667,125.333 370.000,126.000 C391.306,133.919 399.196,175.585 393.000,207.000 C392.333,207.333 391.667,207.667 391.000,208.000 C390.333,207.667 389.667,207.333 389.000,207.000 C390.192,156.310 385.307,113.150 329.000,124.000 C312.864,127.109 300.337,129.420 289.000,137.000 C269.409,150.099 270.196,164.506 260.000,188.000 C259.000,188.000 258.000,188.000 257.000,188.000 C256.667,187.667 256.333,187.333 256.000,187.000 C255.619,123.089 306.889,135.226 343.000,111.000 ZM286.000,191.000 C326.621,190.247 352.871,203.523 382.000,213.000 C381.667,213.667 381.333,214.333 381.000,215.000 C365.204,217.394 347.331,220.805 330.000,217.000 C315.953,213.916 292.728,199.617 277.000,205.000 C277.667,205.000 278.333,205.000 279.000,205.000 C315.717,225.397 352.512,231.667 398.000,219.000 C397.667,219.667 397.333,220.333 397.000,221.000 C384.161,225.426 371.977,232.269 356.000,235.000 C327.296,239.906 294.197,216.618 267.000,212.000 C243.767,208.055 202.379,221.554 207.000,241.000 C207.333,242.667 207.667,244.334 208.000,246.000 C215.458,249.838 224.508,250.576 234.000,248.000 C233.667,248.667 233.333,249.333 233.000,250.000 C220.459,254.444 212.287,257.956 201.000,250.000 C191.379,218.966 225.169,205.135 257.000,206.000 C252.667,204.000 248.333,202.000 244.000,200.000 C257.999,197.000 272.001,194.000 286.000,191.000 ZM458.000,216.000 C461.333,216.333 464.667,216.667 468.000,217.000 C489.155,231.860 473.511,258.328 456.000,265.000 C460.296,254.024 466.824,243.501 457.000,234.000 C457.333,233.333 457.667,232.667 458.000,232.000 C464.951,231.884 467.842,232.973 472.000,235.000 C470.283,230.177 468.218,229.042 465.000,226.000 C447.044,225.596 441.311,233.128 431.000,240.000 C430.333,239.667 429.667,239.333 429.000,239.000 C428.000,236.667 427.000,234.333 426.000,232.000 C436.666,226.667 447.334,221.333 458.000,216.000 ZM398.000,234.000 C409.686,237.631 421.820,272.236 417.000,291.000 C414.608,300.312 406.421,306.527 399.000,311.000 C398.667,311.000 398.333,311.000 398.000,311.000 C398.333,307.667 398.667,304.333 399.000,301.000 C390.257,308.185 382.011,316.038 367.000,309.000 C370.784,315.055 381.583,322.516 379.000,331.000 C375.849,337.685 369.772,340.069 365.000,345.000 C369.666,343.667 374.334,342.333 379.000,341.000 C377.000,343.333 375.000,345.667 373.000,348.000 C367.667,349.666 362.333,351.334 357.000,353.000 C357.000,353.333 357.000,353.667 357.000,354.000 C363.333,353.333 369.667,352.667 376.000,352.000 C375.667,352.667 375.333,353.333 375.000,354.000 C368.001,355.333 360.999,356.667 354.000,358.000 C354.000,358.333 354.000,358.667 354.000,359.000 C359.999,359.667 366.001,360.333 372.000,361.000 C371.667,361.667 371.333,362.333 371.000,363.000 C367.000,363.667 363.000,364.333 359.000,365.000 C359.000,365.333 359.000,365.667 359.000,366.000 C363.333,367.000 367.667,368.000 372.000,369.000 C371.333,370.000 370.667,371.000 370.000,372.000 C366.334,372.667 362.666,373.333 359.000,374.000 C343.741,371.190 332.102,361.277 323.000,352.000 C330.949,336.850 353.168,332.716 355.000,314.000 C352.667,311.000 350.333,308.000 348.000,305.000 C348.134,308.619 350.239,308.706 347.000,310.000 C337.001,313.000 326.999,316.000 317.000,319.000 C305.306,317.261 299.886,306.726 291.000,312.000 C290.333,315.000 289.667,318.000 289.000,321.000 C295.357,335.580 311.234,336.824 313.000,355.000 C307.030,362.702 295.217,369.838 285.000,373.000 C286.333,370.667 287.667,368.333 289.000,366.000 C283.172,367.216 280.267,366.900 277.000,363.000 C277.333,362.667 277.667,362.333 278.000,362.000 C282.379,363.379 285.681,362.244 289.000,360.000 C282.132,357.113 278.137,357.376 274.000,352.000 C274.333,351.667 274.667,351.333 275.000,351.000 C278.666,351.000 282.334,351.000 286.000,351.000 C279.234,349.356 275.341,345.018 273.000,339.000 C276.000,340.000 279.000,341.000 282.000,342.000 C278.588,336.138 274.911,333.688 274.000,325.000 C277.000,319.001 280.000,312.999 283.000,307.000 C276.862,306.971 274.129,300.878 270.000,300.000 C270.333,303.000 270.667,306.000 271.000,309.000 C269.000,307.333 267.000,305.667 265.000,304.000 C260.649,291.841 259.009,279.479 269.000,270.000 C269.333,270.000 269.667,270.000 270.000,270.000 C273.287,278.518 281.951,285.301 293.000,286.000 C292.667,287.666 292.333,289.333 292.000,291.000 C294.666,289.333 297.334,287.666 300.000,286.000 C298.720,290.785 296.353,296.518 298.000,301.000 C298.000,300.333 298.000,299.667 298.000,299.000 C304.151,293.390 326.682,270.962 318.000,262.000 C317.667,262.000 317.333,262.000 317.000,262.000 C316.226,266.419 316.396,265.714 314.000,268.000 C306.667,265.000 299.333,262.000 292.000,259.000 C296.317,257.791 296.727,256.949 299.000,254.000 C286.054,253.238 274.027,253.709 265.000,259.000 C266.491,249.523 274.637,236.781 285.000,236.000 C320.688,249.489 363.560,259.030 398.000,234.000 ZM258.000,240.000 C258.680,243.581 257.945,244.511 255.000,247.000 C254.000,246.333 253.000,245.667 252.000,245.000 C252.667,244.000 253.333,243.000 254.000,242.000 C255.333,241.333 256.667,240.667 258.000,240.000 ZM372.000,253.000 C374.612,255.835 376.359,256.961 381.000,258.000 C380.667,258.667 380.333,259.333 380.000,260.000 C369.668,262.666 359.332,265.334 349.000,268.000 C349.000,267.667 349.000,267.333 349.000,267.000 C349.667,265.000 350.333,263.000 351.000,261.000 C350.667,261.000 350.333,261.000 350.000,261.000 C348.334,263.000 346.666,265.000 345.000,267.000 C343.333,266.000 341.667,265.000 340.000,264.000 C340.000,265.666 340.000,267.333 340.000,269.000 C343.573,279.935 349.758,283.933 353.000,294.000 C353.667,293.667 354.333,293.333 355.000,293.000 C355.333,290.334 355.667,287.666 356.000,285.000 C389.447,285.369 387.927,269.314 406.000,267.000 C403.217,253.528 388.568,252.221 372.000,253.000 ZM425.000,255.000 C450.433,263.368 476.582,295.907 479.000,327.000 C478.333,326.667 477.667,326.333 477.000,326.000 C474.292,317.412 467.953,311.375 461.000,307.000 C461.000,308.000 461.000,309.000 461.000,310.000 C474.083,338.562 467.925,368.598 457.000,393.000 C456.333,393.000 455.667,393.000 455.000,393.000 C456.925,377.824 455.742,362.383 447.000,355.000 C446.667,355.000 446.333,355.000 446.000,355.000 C446.862,386.099 438.389,406.334 421.000,419.000 C424.541,408.360 427.034,400.841 425.000,388.000 C424.667,388.000 424.333,388.000 424.000,388.000 C423.667,388.000 423.333,388.000 423.000,388.000 C418.770,409.849 393.100,440.993 374.000,448.000 C384.531,430.829 394.742,412.787 400.000,390.000 C401.000,381.001 402.000,371.999 403.000,363.000 C404.333,371.332 405.667,379.668 407.000,388.000 C407.333,387.333 407.667,386.667 408.000,386.000 C415.576,375.761 410.272,358.692 414.000,346.000 C414.000,346.667 414.000,347.333 414.000,348.000 C419.666,355.333 425.334,362.667 431.000,370.000 C431.523,347.559 427.745,334.384 422.000,320.000 C432.183,325.980 436.420,336.639 445.000,344.000 C445.648,318.398 441.086,302.882 433.000,287.000 C433.000,286.667 433.000,286.333 433.000,286.000 C437.333,288.000 441.667,290.000 446.000,292.000 C442.779,276.642 430.682,268.189 425.000,255.000 ZM251.000,259.000 C251.294,271.159 231.320,283.249 225.000,294.000 C233.999,290.334 243.001,286.666 252.000,283.000 C241.016,298.678 227.992,306.519 222.000,329.000 C229.333,324.001 236.667,319.000 244.000,314.000 C244.333,314.333 244.667,314.667 245.000,315.000 C238.652,323.657 222.424,345.817 228.000,361.000 C228.000,360.333 228.000,359.667 228.000,359.000 C234.999,351.334 242.001,343.666 249.000,336.000 C243.317,348.615 241.785,362.310 242.000,379.000 C242.667,378.667 243.333,378.333 244.000,378.000 C246.675,369.850 254.132,359.167 261.000,355.000 C261.000,355.333 261.000,355.667 261.000,356.000 C255.529,366.783 248.650,394.595 259.000,406.000 C259.873,399.626 262.255,391.774 266.000,388.000 C265.318,418.133 272.979,433.521 281.000,453.000 C271.065,447.303 261.423,435.014 257.000,424.000 C256.333,424.000 255.667,424.000 255.000,424.000 C255.333,428.666 255.667,433.334 256.000,438.000 C237.457,423.611 239.783,406.430 230.000,382.000 C229.667,382.667 229.333,383.333 229.000,384.000 C224.400,390.137 226.277,398.541 223.000,407.000 C222.667,406.333 222.333,405.667 222.000,405.000 C206.548,384.349 219.341,363.664 215.000,345.000 C213.333,346.333 211.667,347.667 210.000,349.000 C206.619,356.854 201.794,361.939 200.000,372.000 C199.667,372.000 199.333,372.000 199.000,372.000 C198.254,340.779 207.833,326.089 218.000,307.000 C212.001,309.000 205.999,311.000 200.000,313.000 C200.000,312.667 200.000,312.333 200.000,312.000 C212.513,286.401 232.801,277.929 251.000,259.000 ZM281.000,268.000 C286.049,269.255 288.278,270.553 291.000,274.000 C291.000,274.333 291.000,274.667 291.000,275.000 C285.597,273.968 283.117,272.316 281.000,268.000 ZM383.000,268.000 C384.666,268.333 386.334,268.667 388.000,269.000 C387.667,269.667 387.333,270.333 387.000,271.000 C382.559,272.563 378.874,273.938 375.000,271.000 C375.000,270.667 375.000,270.333 375.000,270.000 C377.666,269.333 380.334,268.667 383.000,268.000 ZM485.000,269.000 C495.544,277.527 504.145,296.323 506.000,313.000 C505.667,313.000 505.333,313.000 505.000,313.000 C505.000,312.333 505.000,311.667 505.000,311.000 C498.334,297.001 491.666,282.999 485.000,269.000 ZM499.000,342.000 C502.000,349.666 505.000,357.334 508.000,365.000 C506.667,363.667 505.333,362.333 504.000,361.000 C502.667,360.333 501.333,359.667 500.000,359.000 C499.667,353.334 499.333,347.666 499.000,342.000 ZM315.000,371.000 C336.913,371.178 358.174,388.488 352.000,412.000 C351.667,412.000 351.333,412.000 351.000,412.000 C350.667,412.000 350.333,412.000 350.000,412.000 C350.715,405.038 348.755,398.281 344.000,394.000 C343.667,394.000 343.333,394.000 343.000,394.000 C343.274,408.861 338.103,420.297 331.000,428.000 C330.667,427.667 330.333,427.333 330.000,427.000 C330.561,420.172 327.927,410.901 326.000,404.000 C325.333,404.333 324.667,404.667 324.000,405.000 C321.000,414.666 318.000,424.334 315.000,434.000 C313.667,433.000 312.333,432.000 311.000,431.000 C306.345,417.858 299.510,409.731 297.000,392.000 C296.667,392.667 296.333,393.333 296.000,394.000 C292.023,398.257 292.563,406.121 289.000,411.000 C283.453,383.388 295.390,381.246 315.000,371.000 ZM486.000,387.000 C497.980,390.734 514.076,400.632 521.000,410.000 C521.000,410.333 521.000,410.667 521.000,411.000 C514.443,411.179 509.359,412.640 506.000,416.000 C527.339,415.509 538.619,420.163 553.000,425.000 C549.334,420.667 545.666,416.333 542.000,412.000 C585.846,410.821 619.368,448.509 610.000,496.000 C607.917,506.559 606.817,513.528 600.000,519.000 C601.392,510.221 601.985,499.763 601.000,490.000 C600.333,490.333 599.667,490.667 599.000,491.000 C597.029,498.818 589.233,506.424 582.000,509.000 C593.962,487.113 595.768,443.965 572.000,433.000 C595.306,478.808 570.497,500.500 529.000,511.000 C537.852,530.025 526.336,550.816 520.000,566.000 C531.933,556.793 543.479,530.847 551.000,526.000 C554.968,523.872 563.937,522.896 567.000,526.000 C571.611,530.829 571.449,536.716 573.000,545.000 C581.024,587.862 551.938,592.030 531.000,609.000 C525.337,640.859 508.899,662.584 487.000,678.000 C486.667,678.000 486.333,678.000 486.000,678.000 C487.333,672.334 488.667,666.666 490.000,661.000 C464.986,682.006 451.953,679.060 416.000,670.000 C416.000,670.333 416.000,670.667 416.000,671.000 C417.000,672.666 418.000,674.333 419.000,676.000 C417.334,676.000 415.666,676.000 414.000,676.000 C389.000,668.007 366.240,661.327 344.000,651.000 C302.222,631.600 263.469,603.388 216.000,590.000 C217.333,592.333 218.667,594.667 220.000,597.000 C205.852,595.266 197.421,582.621 191.000,573.000 C191.000,572.667 191.000,572.333 191.000,572.000 C199.219,569.843 210.894,561.596 222.000,566.000 C221.333,566.000 220.667,566.000 220.000,566.000 C218.667,567.333 217.333,568.667 216.000,570.000 C216.000,570.333 216.000,570.667 216.000,571.000 C261.703,567.114 291.238,579.824 324.000,591.000 C315.518,578.906 303.229,575.941 293.000,566.000 C319.023,563.665 361.857,556.127 379.000,573.000 C365.995,574.646 349.485,579.273 342.000,587.000 C393.333,586.175 424.240,567.559 472.000,591.000 C467.977,579.834 458.567,576.530 450.000,570.000 C450.000,569.667 450.000,569.333 450.000,569.000 C462.665,570.000 475.335,571.000 488.000,572.000 C486.667,570.333 485.333,568.666 484.000,567.000 C476.001,564.000 467.999,561.000 460.000,558.000 C447.687,555.499 437.369,560.514 429.000,558.000 C429.714,522.843 453.875,505.069 485.000,500.000 C494.332,500.333 503.668,500.667 513.000,501.000 C487.003,497.016 471.268,479.112 475.000,448.000 C474.333,448.333 473.667,448.667 473.000,449.000 C469.240,460.761 465.945,469.489 466.000,487.000 C465.333,486.667 464.667,486.333 464.000,486.000 C459.667,478.334 455.333,470.666 451.000,463.000 C450.667,463.000 450.333,463.000 450.000,463.000 C449.333,474.332 448.667,485.668 448.000,497.000 C440.207,494.743 429.463,486.845 419.000,491.000 C419.667,491.000 420.333,491.000 421.000,491.000 C428.157,495.831 434.909,499.146 440.000,506.000 C428.445,521.959 411.348,542.247 388.000,546.000 C388.000,546.333 388.000,546.667 388.000,547.000 C393.000,547.333 398.000,547.667 403.000,548.000 C402.667,548.667 402.333,549.333 402.000,550.000 C401.333,550.000 400.667,550.000 400.000,550.000 C385.076,558.636 328.906,545.689 324.000,535.000 C312.712,514.975 353.298,493.384 368.000,491.000 C368.000,490.667 368.000,490.333 368.000,490.000 C352.870,490.145 341.569,494.398 330.000,498.000 C330.000,497.667 330.000,497.333 330.000,497.000 C341.633,477.760 367.638,467.248 392.000,461.000 C401.634,458.529 423.516,459.441 430.000,453.000 C426.251,452.487 420.232,451.299 418.000,449.000 C429.666,443.001 441.334,436.999 453.000,431.000 C449.667,435.000 446.333,439.000 443.000,443.000 C443.667,443.000 444.333,443.000 445.000,443.000 C449.000,445.666 453.000,448.334 457.000,451.000 C463.600,429.918 478.749,423.525 496.000,413.000 C496.000,412.667 496.000,412.333 496.000,412.000 C489.001,408.334 481.999,404.666 475.000,401.000 C478.666,396.334 482.334,391.666 486.000,387.000 ZM195.000,394.000 C198.998,396.452 201.017,401.662 202.000,407.000 C199.000,409.333 196.000,411.667 193.000,414.000 C185.334,411.000 177.666,408.000 170.000,405.000 C170.000,404.667 170.000,404.333 170.000,404.000 C178.332,400.667 186.668,397.333 195.000,394.000 ZM135.000,415.000 C164.607,414.526 186.165,422.102 205.000,434.000 C205.000,435.333 205.000,436.667 205.000,438.000 C199.667,443.666 194.333,449.334 189.000,455.000 C201.522,450.999 208.972,446.044 227.000,446.000 C224.667,440.667 222.333,435.333 220.000,430.000 C220.667,430.333 221.333,430.667 222.000,431.000 C225.453,439.758 233.061,446.661 241.000,451.000 C239.334,452.666 237.666,454.333 236.000,456.000 C267.225,457.928 304.087,465.940 307.000,496.000 C296.607,493.541 280.206,482.926 267.000,488.000 C282.491,490.902 302.936,503.184 303.000,522.000 C302.667,522.000 302.333,522.000 302.000,522.000 C294.739,515.329 285.030,510.907 273.000,509.000 C273.333,509.667 273.667,510.333 274.000,511.000 C283.095,512.901 291.697,520.145 295.000,528.000 C295.333,531.000 295.667,534.000 296.000,537.000 C286.371,556.214 236.805,559.121 217.000,545.000 C205.443,536.760 200.320,521.587 195.000,507.000 C199.209,499.580 207.468,493.945 217.000,492.000 C217.000,491.667 217.000,491.333 217.000,491.000 C209.334,492.000 201.666,493.000 194.000,494.000 C195.805,480.354 202.460,472.703 208.000,463.000 C196.001,470.333 183.999,477.667 172.000,485.000 C175.828,476.821 178.673,468.311 178.000,458.000 C177.667,458.000 177.333,458.000 177.000,458.000 C176.667,458.000 176.333,458.000 176.000,458.000 C167.995,479.917 142.918,485.117 129.000,501.000 C168.267,496.922 197.074,526.699 169.000,559.000 C150.948,551.724 110.593,546.406 97.000,562.000 C140.346,560.915 183.641,567.928 191.000,602.000 C180.842,600.448 152.609,595.645 144.000,602.000 C185.222,608.183 218.299,632.145 248.000,650.000 C247.667,650.667 247.333,651.333 247.000,652.000 C227.632,657.323 182.703,667.967 162.000,655.000 C180.270,656.961 195.705,652.587 211.000,649.000 C211.000,648.667 211.000,648.333 211.000,648.000 C174.436,648.772 123.157,646.133 105.000,627.000 C105.000,626.667 105.000,626.333 105.000,626.000 C113.078,624.829 125.113,620.956 130.000,616.000 C129.333,616.000 128.667,616.000 128.000,616.000 C118.049,611.640 77.156,615.332 73.000,610.000 C64.211,595.413 73.859,576.765 79.000,567.000 C74.334,570.333 69.666,573.667 65.000,577.000 C64.667,577.000 64.333,577.000 64.000,577.000 C63.228,565.758 63.485,555.077 67.000,546.000 C56.018,551.041 48.240,566.293 48.000,582.000 C47.333,581.667 46.667,581.333 46.000,581.000 C44.978,536.706 60.346,511.739 98.000,507.000 C89.647,456.061 109.619,447.588 132.000,423.000 C95.714,437.149 84.362,460.326 78.000,504.000 C77.667,504.000 77.333,504.000 77.000,504.000 C70.321,462.746 82.868,432.894 113.000,420.000 C120.333,418.333 127.667,416.666 135.000,415.000 ZM370.000,421.000 C373.158,433.348 356.196,457.515 345.000,460.000 C345.667,459.333 346.333,458.667 347.000,458.000 C353.099,444.693 364.854,436.361 370.000,421.000 ZM297.000,447.000 C302.666,456.332 308.334,465.668 314.000,475.000 C304.470,472.038 298.693,457.615 297.000,447.000 ZM112.000,514.000 C102.352,525.470 96.819,532.284 91.000,549.000 C91.667,548.667 92.333,548.333 93.000,548.000 C99.333,536.668 105.667,525.332 112.000,514.000 ZM588.000,541.000 C594.115,547.977 595.008,559.929 595.000,573.000 C594.979,605.916 580.643,629.618 561.000,643.000 C554.334,646.666 547.666,650.334 541.000,654.000 C529.196,670.307 531.268,683.423 510.000,692.000 C516.999,684.001 524.001,675.999 531.000,668.000 C534.666,658.001 538.334,647.999 542.000,638.000 C542.333,638.000 542.667,638.000 543.000,638.000 C543.000,641.000 543.000,644.000 543.000,647.000 C543.667,646.333 544.333,645.667 545.000,645.000 C572.869,631.844 596.203,583.310 588.000,541.000 ZM260.000,592.000 C272.332,598.666 284.668,605.334 297.000,612.000 C336.556,632.441 384.887,658.390 444.000,647.000 C486.209,638.867 499.705,661.613 517.000,619.000 C519.061,613.923 523.029,605.381 520.000,598.000 C520.000,598.667 520.000,599.333 520.000,600.000 C471.421,657.477 454.049,609.201 386.000,608.000 C386.000,608.333 386.000,608.667 386.000,609.000 C386.667,609.000 387.333,609.000 388.000,609.000 C399.666,614.999 411.334,621.001 423.000,627.000 C353.242,632.440 314.672,602.416 260.000,592.000 ZM54.000,604.000 C56.333,611.333 58.667,618.667 61.000,626.000 C73.434,644.096 105.636,644.607 125.000,656.000 C125.000,656.333 125.000,656.667 125.000,657.000 C83.583,668.582 78.591,658.956 57.000,637.000 C56.539,658.542 63.325,671.873 72.000,684.000 C68.000,683.000 64.000,682.000 60.000,681.000 C51.635,660.408 39.710,628.437 54.000,604.000 ZM240.000,621.000 C273.378,628.513 297.655,658.015 324.000,674.000 C340.218,683.841 356.931,686.052 378.000,692.000 C372.334,687.334 366.666,682.666 361.000,678.000 C379.456,683.744 392.398,695.863 416.000,697.000 C415.667,697.667 415.333,698.333 415.000,699.000 C341.846,700.932 321.742,678.843 281.000,648.000 C267.335,639.001 253.665,629.999 240.000,621.000 ZM225.000,672.000 C225.667,672.000 226.333,672.000 227.000,672.000 C209.656,689.302 146.881,699.171 122.000,681.000 C153.680,683.751 200.482,686.463 225.000,672.000 ZM277.000,672.000 C272.821,682.375 243.548,692.568 229.000,696.000 C244.998,688.001 261.002,679.999 277.000,672.000 ZM627.000,698.000 C642.270,697.614 654.139,701.144 660.000,710.000 C666.123,719.252 667.582,811.725 662.000,825.000 C658.605,833.073 649.402,839.982 640.000,842.000 C588.158,853.125 592.999,806.219 593.000,764.000 C593.000,748.553 590.400,726.875 596.000,716.000 C602.018,704.312 614.222,703.339 627.000,698.000 ZM6.000,700.000 C13.999,701.000 22.001,702.000 30.000,703.000 C34.333,737.996 38.667,773.003 43.000,808.000 C48.000,774.003 53.000,739.997 58.000,706.000 C65.333,706.333 72.667,706.667 80.000,707.000 C72.334,751.996 64.666,797.005 57.000,842.000 C48.301,842.331 32.176,845.664 28.000,842.000 C20.667,794.671 13.333,747.329 6.000,700.000 ZM578.000,743.000 C570.334,743.000 562.666,743.000 555.000,743.000 C555.328,735.130 554.619,730.231 552.000,726.000 C551.333,726.000 550.667,726.000 550.000,726.000 C543.677,724.147 539.278,726.314 535.000,729.000 C525.477,771.657 593.122,768.725 578.000,819.000 C568.608,850.226 499.110,844.852 512.000,801.000 C512.333,801.000 512.667,801.000 513.000,801.000 C519.333,801.333 525.667,801.667 532.000,802.000 C531.635,812.863 533.814,815.174 539.000,820.000 C547.221,820.486 551.206,820.038 554.000,815.000 C567.771,783.409 497.844,775.315 511.000,728.000 C519.745,696.548 579.291,693.220 578.000,743.000 ZM114.000,709.000 C161.633,707.545 156.999,735.831 157.000,781.000 C157.000,793.775 159.700,813.642 155.000,823.000 C150.830,831.302 139.534,837.045 129.000,839.000 C84.285,847.297 91.000,803.020 91.000,766.000 C91.000,750.565 88.695,729.630 95.000,720.000 C99.168,713.634 106.859,712.545 114.000,709.000 ZM455.000,710.000 C501.026,708.552 495.000,735.783 495.000,779.000 C495.000,792.762 497.894,815.192 492.000,824.000 C487.367,830.923 476.744,835.282 467.000,837.000 C423.727,844.628 426.999,804.165 427.000,767.000 C427.000,752.997 424.987,734.670 430.000,725.000 C434.861,715.623 444.910,714.446 455.000,710.000 ZM174.000,713.000 C180.999,713.333 188.001,713.667 195.000,714.000 C195.333,747.997 195.667,782.003 196.000,816.000 C204.999,816.000 214.001,816.000 223.000,816.000 C222.667,822.333 222.333,828.667 222.000,835.000 C206.002,835.333 189.998,835.667 174.000,836.000 C174.000,795.004 174.000,753.996 174.000,713.000 ZM317.000,833.000 C317.333,794.004 317.667,754.996 318.000,716.000 C318.333,716.000 318.667,716.000 319.000,716.000 C329.332,716.667 339.668,717.333 350.000,718.000 C354.666,742.331 359.334,766.669 364.000,791.000 C364.333,791.000 364.667,791.000 365.000,791.000 C369.666,765.669 374.334,740.331 379.000,715.000 C389.332,714.667 399.668,714.333 410.000,714.000 C410.000,753.663 410.000,793.337 410.000,833.000 C403.334,833.333 396.666,833.667 390.000,834.000 C389.667,833.667 389.333,833.333 389.000,833.000 C388.667,806.336 388.333,779.664 388.000,753.000 C382.334,779.664 376.666,806.336 371.000,833.000 C365.423,833.354 358.682,833.643 356.000,831.000 C350.334,805.003 344.666,778.997 339.000,753.000 C338.667,753.000 338.333,753.000 338.000,753.000 C337.667,779.664 337.333,806.336 337.000,833.000 C330.334,833.000 323.666,833.000 317.000,833.000 ZM235.000,716.000 C242.333,716.333 249.667,716.667 257.000,717.000 C256.701,740.361 251.822,802.085 261.000,816.000 C261.667,816.333 262.333,816.667 263.000,817.000 C266.666,816.667 270.334,816.333 274.000,816.000 C275.333,814.333 276.667,812.666 278.000,811.000 C278.667,779.336 279.333,747.664 280.000,716.000 C286.999,716.333 294.001,716.667 301.000,717.000 C301.977,763.434 317.018,847.632 258.000,835.000 C223.453,827.606 234.158,757.083 235.000,716.000 ZM626.000,719.000 C622.282,721.354 618.435,722.368 617.000,727.000 C614.248,735.883 616.458,814.668 619.000,818.000 C624.099,824.683 634.281,820.467 639.000,817.000 C639.000,785.337 639.000,753.663 639.000,722.000 C636.707,718.713 631.651,719.046 626.000,719.000 ZM120.000,727.000 C118.000,728.333 116.000,729.667 114.000,731.000 C114.000,759.331 114.000,787.669 114.000,816.000 C115.666,817.333 117.334,818.667 119.000,820.000 C126.516,820.267 130.152,819.357 133.000,815.000 C138.188,806.594 136.389,744.333 134.000,732.000 C132.000,730.667 130.000,729.333 128.000,728.000 C125.334,727.667 122.666,727.333 120.000,727.000 ZM456.000,729.000 C454.334,731.000 452.666,733.000 451.000,735.000 C447.360,747.677 448.429,811.326 455.000,816.000 C459.774,818.859 464.812,817.503 470.000,816.000 C477.449,799.783 475.812,753.008 472.000,733.000 C470.334,731.667 468.666,730.333 467.000,729.000 C463.334,729.000 459.666,729.000 456.000,729.000 Z" class="cls-1"/>
</svg>
