<svg xmlns="http://www.w3.org/2000/svg" xmlns:xlink="http://www.w3.org/1999/xlink" preserveAspectRatio="xMidYMid" width="550" height="550" viewBox="0 0 550 550">
  <defs>
    <style>
      .cls-1 {
        fill: #fff;
        stroke: #fff;
        stroke-linejoin: round;
        stroke-width: 5px;
        fill-rule: evenodd;
      }
    </style>
  </defs>
  <path d="M190.000,90.000 C223.618,89.744 349.901,83.831 367.000,95.000 C367.333,137.662 367.667,180.338 368.000,223.000 C368.000,235.747 371.356,260.648 365.000,268.000 C358.988,276.432 334.903,273.000 321.000,273.000 C276.671,272.667 232.329,272.333 188.000,272.000 C186.333,270.000 184.667,268.000 183.000,266.000 C182.667,224.004 182.333,181.996 182.000,140.000 C182.000,123.639 180.015,102.373 186.000,92.000 C187.333,91.333 188.667,90.667 190.000,90.000 ZM206.000,115.000 C206.000,159.662 206.000,204.338 206.000,249.000 C251.995,248.667 298.005,248.333 344.000,248.000 C344.000,203.671 344.000,159.329 344.000,115.000 C333.334,115.000 322.666,115.000 312.000,115.000 C312.210,137.922 314.786,167.518 310.000,187.000 C298.783,194.463 263.401,194.415 246.000,191.000 C232.381,180.792 237.557,138.146 238.000,115.000 C227.334,115.000 216.666,115.000 206.000,115.000 ZM262.000,115.000 C262.000,132.332 262.000,149.668 262.000,167.000 C270.666,167.000 279.334,167.000 288.000,167.000 C288.000,149.668 288.000,132.332 288.000,115.000 C279.334,115.000 270.666,115.000 262.000,115.000 ZM113.000,172.000 C174.536,171.791 158.223,258.961 181.000,299.000 C187.436,292.835 192.683,285.286 203.000,283.000 C227.635,277.541 248.440,298.190 243.000,323.000 C231.335,349.331 219.666,375.669 208.000,402.000 C203.002,420.631 212.276,444.441 204.000,458.000 C159.004,458.000 113.995,458.000 69.000,458.000 C59.961,443.815 69.053,420.271 64.000,400.000 C52.334,363.670 40.665,327.330 29.000,291.000 C25.745,280.561 16.007,266.717 19.000,252.000 C22.320,235.675 33.528,225.562 52.000,224.000 C51.051,196.343 67.459,187.260 94.000,190.000 C97.478,179.874 104.660,177.203 113.000,172.000 ZM422.000,172.000 C445.503,171.537 444.464,182.321 457.000,189.000 C461.333,188.667 465.667,188.333 470.000,188.000 C490.796,192.048 494.722,203.833 500.000,224.000 C519.979,224.441 536.719,243.846 530.000,267.000 C515.335,311.995 500.665,357.004 486.000,402.000 C485.418,416.182 491.633,449.614 481.000,457.000 C469.950,463.874 348.085,460.541 344.000,454.000 C336.470,441.664 346.080,416.846 342.000,401.000 C330.334,374.336 318.665,347.664 307.000,321.000 C301.902,295.078 328.560,274.605 353.000,285.000 C358.666,289.666 364.334,294.334 370.000,299.000 C379.999,261.337 390.001,223.663 400.000,186.000 C405.308,178.581 413.419,176.393 422.000,172.000 ZM120.000,196.000 C117.667,198.000 115.333,200.000 113.000,202.000 C114.269,225.121 140.879,273.087 134.000,292.000 C132.000,294.333 130.000,296.667 128.000,299.000 C123.667,298.333 119.333,297.667 115.000,297.000 C110.369,283.934 95.069,219.963 87.000,215.000 C85.333,214.333 83.666,213.667 82.000,213.000 C79.768,214.603 78.662,214.690 77.000,217.000 C70.442,228.063 95.071,284.113 97.000,302.000 C94.334,305.000 91.666,308.000 89.000,311.000 C81.498,311.058 79.232,309.619 75.000,307.000 C70.180,288.689 65.106,262.350 55.000,248.000 C48.927,248.064 47.443,248.991 44.000,251.000 C41.360,272.607 75.636,364.842 85.000,388.000 C119.330,388.000 153.670,388.000 188.000,388.000 C198.332,365.002 208.668,341.998 219.000,319.000 C220.485,311.803 215.886,309.898 213.000,307.000 C211.000,307.333 209.000,307.667 207.000,308.000 C194.745,314.263 189.235,329.365 177.000,337.000 C174.000,336.333 171.000,335.667 168.000,335.000 C142.854,298.366 150.144,234.769 126.000,197.000 C124.000,196.667 122.000,196.333 120.000,196.000 ZM427.000,196.000 C425.000,197.333 423.000,198.667 421.000,200.000 C412.334,231.997 403.666,264.003 395.000,296.000 C390.846,310.042 389.679,324.841 383.000,336.000 C379.235,337.191 375.295,338.858 371.000,337.000 C362.536,332.477 342.549,296.617 333.000,312.000 C330.509,318.412 358.709,383.812 364.000,389.000 C397.997,388.667 432.003,388.333 466.000,388.000 C479.665,343.338 493.335,298.662 507.000,254.000 C504.493,250.301 502.664,249.525 499.000,247.000 C497.000,247.667 495.000,248.333 493.000,249.000 C485.470,267.854 483.662,297.820 470.000,311.000 C467.000,310.667 464.000,310.333 461.000,310.000 C439.697,299.648 478.401,238.457 475.000,220.000 C473.939,215.930 473.947,215.983 471.000,214.000 C467.806,211.857 465.296,212.105 461.000,213.000 C453.970,230.249 444.317,292.621 431.000,299.000 C427.667,299.000 424.333,299.000 421.000,299.000 C419.000,296.667 417.000,294.333 415.000,292.000 C415.517,259.324 440.361,230.848 435.000,199.000 C432.334,198.000 429.666,197.000 427.000,196.000 ZM184.000,435.000 C184.000,427.334 184.000,419.666 184.000,412.000 C152.003,412.333 119.997,412.667 88.000,413.000 C88.333,420.333 88.667,427.667 89.000,435.000 C120.663,435.000 152.337,435.000 184.000,435.000 ZM367.000,412.000 C367.000,419.666 367.000,427.334 367.000,435.000 C398.663,434.667 430.337,434.333 462.000,434.000 C462.000,433.667 462.000,433.333 462.000,433.000 C461.667,426.001 461.333,418.999 461.000,412.000 C429.670,412.000 398.330,412.000 367.000,412.000 Z" class="cls-1"/>
</svg>
