<svg xmlns="http://www.w3.org/2000/svg" xmlns:xlink="http://www.w3.org/1999/xlink" preserveAspectRatio="xMidYMid" width="550" height="550" viewBox="0 0 550 550">
  <defs>
    <style>
      .cls-1 {
        fill: #fff;
        stroke: #fff;
        stroke-linejoin: round;
        stroke-width: 5px;
        filter: url(#color-overlay-1);
        fill-rule: evenodd;
      }
    </style>

    <filter id="color-overlay-1" filterUnits="userSpaceOnUse">
      <feFlood flood-color="#fff"/>
      <feComposite operator="in" in2="SourceGraphic"/>
      <feBlend in2="SourceGraphic" result="solidFill"/>
    </filter>
  </defs>
  <g style="fill: #fff; filter: url(#color-overlay-1)">
    <path d="M404.000,209.000 C413.924,210.377 422.683,216.493 431.000,220.000 C439.502,223.585 448.116,227.032 456.000,230.000 C460.151,231.562 463.606,230.789 467.000,233.000 C470.666,237.000 474.334,241.000 478.000,245.000 C490.173,257.173 501.864,269.785 514.000,282.000 C521.804,289.854 529.180,298.159 537.000,306.000 C539.333,308.000 541.667,310.000 544.000,312.000 C544.000,316.666 544.000,321.334 544.000,326.000 C540.920,327.378 540.512,330.530 538.000,332.000 C533.843,334.432 529.475,334.110 525.000,336.000 C513.518,340.848 500.542,346.144 489.000,351.000 C484.933,352.711 474.001,353.488 472.000,357.000 C472.000,373.998 472.000,391.002 472.000,408.000 C466.631,416.807 476.213,455.273 470.000,465.000 C465.030,478.700 439.337,481.364 426.000,487.000 C393.488,500.738 359.851,512.186 326.000,525.000 C309.585,531.214 290.627,543.869 270.000,544.000 C263.203,535.166 235.015,529.971 223.000,525.000 C194.045,513.020 162.899,501.998 134.000,490.000 C120.717,484.485 97.901,480.375 87.000,473.000 C83.992,470.965 82.489,466.628 80.000,464.000 C80.000,428.337 80.000,392.663 80.000,357.000 C63.040,349.889 44.747,343.045 28.000,336.000 C20.189,332.714 11.815,331.912 8.000,325.000 C8.000,321.000 8.000,317.000 8.000,313.000 C11.895,311.159 12.348,307.985 15.000,305.000 C24.973,293.775 35.918,283.341 46.000,272.000 C52.257,264.961 61.341,259.501 67.000,252.000 C71.515,246.015 77.328,237.541 84.000,234.000 C96.126,227.564 109.315,225.335 122.000,220.000 C130.407,216.464 139.908,210.021 150.000,209.000 C149.628,206.924 149.758,207.076 149.000,206.000 C145.534,202.748 140.817,200.875 137.000,198.000 C124.644,188.693 118.122,173.795 113.000,157.000 C111.452,151.924 106.623,137.576 110.000,132.000 C111.709,127.580 114.644,128.730 116.000,124.000 C112.598,119.798 112.722,115.187 111.000,109.000 C103.008,80.279 114.336,53.189 129.000,38.000 C133.152,33.699 138.278,21.884 149.000,25.000 C162.895,29.038 159.213,45.850 165.000,58.000 C176.796,82.768 194.395,102.889 218.000,116.000 C222.749,118.638 232.728,127.957 238.000,126.000 C256.341,105.702 221.959,88.673 225.000,76.000 C226.385,70.226 231.128,66.309 234.000,62.000 C242.126,49.806 249.849,37.674 258.000,26.000 C261.339,21.219 264.707,10.389 270.000,8.000 C274.333,8.000 278.667,8.000 283.000,8.000 C285.707,15.995 294.482,23.221 299.000,30.000 C306.963,41.948 314.345,53.504 322.000,65.000 C324.301,68.456 325.216,73.035 328.000,76.000 C324.751,90.402 298.855,106.086 314.000,125.000 C315.073,125.752 314.946,125.601 317.000,126.000 C323.890,119.513 339.610,114.148 348.000,108.000 C370.245,91.699 387.290,63.600 394.000,32.000 C399.190,28.671 401.967,26.072 411.000,26.000 C430.505,44.814 435.825,51.121 443.000,83.000 C443.795,86.532 445.133,94.911 444.000,100.000 C441.915,109.363 437.575,117.417 437.000,127.000 C443.608,128.795 443.433,134.425 443.000,143.000 C439.031,149.232 439.936,159.057 437.000,166.000 C430.650,181.018 418.322,198.825 404.000,206.000 C404.000,207.000 404.000,208.000 404.000,209.000 ZM274.000,50.000 C269.463,59.647 259.147,67.232 257.000,78.000 C261.534,81.569 262.238,86.469 265.000,92.000 C280.127,122.292 255.145,149.441 249.000,176.000 C244.204,196.728 264.666,223.366 278.000,225.000 C285.258,214.845 297.113,210.219 302.000,197.000 C311.535,171.208 288.563,144.597 283.000,126.000 C275.640,101.398 290.971,89.116 295.000,75.000 C288.287,69.474 283.230,51.154 274.000,50.000 ZM144.000,159.000 C144.000,160.000 144.000,161.000 144.000,162.000 C147.141,164.409 147.636,167.762 150.000,171.000 C153.934,176.389 163.254,182.526 169.000,186.000 C182.227,193.997 194.071,190.703 206.000,202.000 C206.276,207.668 207.133,211.617 204.000,216.000 C200.693,220.627 192.929,220.775 187.000,223.000 C170.434,229.217 152.252,236.533 136.000,244.000 C136.000,245.000 136.000,246.000 136.000,247.000 C148.012,247.799 160.045,255.757 170.000,260.000 C194.552,270.465 218.832,277.540 244.000,287.000 C253.077,290.412 265.212,298.527 275.000,300.000 C279.519,300.680 308.695,287.261 314.000,285.000 C331.615,277.492 349.309,273.924 367.000,266.000 C378.823,260.705 402.434,248.289 416.000,247.000 C416.000,245.667 416.000,244.333 416.000,243.000 C399.563,239.706 382.776,231.081 368.000,225.000 C360.574,221.944 351.118,222.240 348.000,215.000 C345.254,212.202 344.887,208.845 345.000,203.000 C347.243,200.766 348.361,196.774 351.000,195.000 C356.734,191.145 366.064,192.540 373.000,190.000 C386.441,185.078 405.239,174.267 408.000,159.000 C398.082,160.679 395.884,164.031 384.000,161.000 C380.721,155.991 378.886,154.272 379.000,145.000 C380.262,143.641 380.365,143.232 381.000,141.000 C407.236,124.974 421.535,109.666 412.000,70.000 C411.333,70.000 410.667,70.000 410.000,70.000 C410.000,70.333 410.000,70.667 410.000,71.000 C407.350,73.945 407.152,78.443 405.000,82.000 C398.921,92.048 391.849,103.399 384.000,112.000 C366.751,130.899 346.522,139.017 326.000,154.000 C336.854,195.392 327.989,221.768 300.000,242.000 C291.804,247.925 286.383,255.055 272.000,255.000 C266.797,250.177 258.806,248.163 253.000,244.000 C238.348,233.493 214.079,203.973 221.000,173.000 C222.432,166.590 224.430,160.131 225.000,153.000 C203.258,142.736 176.658,125.206 163.000,107.000 C158.695,101.262 143.833,72.444 139.000,71.000 C139.000,71.667 139.000,72.333 139.000,73.000 C135.244,77.868 135.062,91.854 137.000,99.000 C140.705,112.662 145.124,124.827 155.000,132.000 C163.634,138.272 171.543,138.032 172.000,153.000 C170.895,154.384 170.506,155.873 170.000,158.000 C164.594,161.532 162.085,163.152 152.000,163.000 C149.913,160.915 147.612,159.617 144.000,159.000 ZM95.000,261.000 C85.502,275.328 70.468,286.146 60.000,300.000 C56.202,305.027 49.365,307.476 47.000,314.000 C47.333,314.000 47.667,314.000 48.000,314.000 C52.486,317.286 58.498,317.658 64.000,320.000 C78.232,326.058 92.614,331.129 108.000,337.000 C131.186,345.848 154.709,354.796 179.000,364.000 C188.888,367.747 198.912,374.930 211.000,376.000 C212.783,370.879 217.146,368.819 220.000,365.000 C228.384,353.781 236.681,343.202 245.000,332.000 C247.859,328.150 251.758,326.790 253.000,321.000 C252.667,321.000 252.333,321.000 252.000,321.000 C252.000,320.667 252.000,320.333 252.000,320.000 C237.921,319.164 223.721,309.616 212.000,305.000 C187.195,295.230 163.508,288.354 139.000,278.000 C125.981,272.500 110.303,262.509 95.000,261.000 ZM453.000,262.000 C443.884,268.122 431.524,269.527 421.000,274.000 C396.312,284.492 369.030,295.488 344.000,305.000 C335.254,308.324 300.957,317.112 299.000,324.000 C305.465,329.129 310.015,337.323 315.000,344.000 C319.206,349.633 325.796,354.401 330.000,360.000 C334.199,365.591 337.429,374.977 346.000,376.000 C354.994,368.436 375.830,364.649 388.000,360.000 C412.553,350.620 438.885,340.422 463.000,330.000 C471.319,326.405 502.293,318.548 505.000,312.000 C500.044,308.651 497.153,303.159 493.000,299.000 C485.667,292.001 478.333,284.999 471.000,278.000 C466.666,272.271 461.687,263.061 453.000,262.000 ZM108.000,368.000 C108.000,395.664 108.000,423.336 108.000,451.000 C131.425,459.895 156.320,469.046 179.000,479.000 C193.430,485.333 207.591,487.932 222.000,494.000 C228.354,496.676 256.781,509.482 261.000,508.000 C264.283,502.708 262.000,475.629 262.000,467.000 C262.000,431.004 262.000,394.996 262.000,359.000 C261.000,359.000 260.000,359.000 259.000,359.000 C256.715,366.171 250.030,369.614 246.000,375.000 C237.402,386.490 229.195,396.241 219.000,406.000 C205.180,406.306 197.507,401.041 188.000,397.000 C170.012,389.354 152.441,385.009 134.000,378.000 C125.889,374.917 117.909,369.045 108.000,368.000 ZM290.000,359.000 C290.000,393.330 290.000,427.670 290.000,462.000 C290.000,476.134 287.016,496.932 291.000,509.000 C305.678,505.717 320.468,497.199 334.000,492.000 C358.359,482.641 382.661,474.946 406.000,465.000 C415.485,460.958 425.201,457.410 434.000,454.000 C437.156,452.777 441.547,453.602 443.000,451.000 C443.000,423.336 443.000,395.664 443.000,368.000 C432.230,369.389 421.166,376.169 412.000,380.000 C397.462,386.076 383.399,388.907 369.000,395.000 C356.440,400.314 345.054,407.471 329.000,404.000 C321.330,391.994 309.461,382.297 301.000,371.000 C297.749,366.659 295.971,360.569 290.000,359.000 Z" id="path-1" style="stroke: inherit; filter: none; fill: inherit" class="cls-1"/>
  </g>
  <use xlink:href="#path-1" style="stroke: #fff; filter: none; fill: none"/>
</svg>
